# xmcd
#
# Track frame offsets:
#	150
#	19260
#	41195
#
# Disc length: 843 seconds
#
# Revision: 0
# Processed by: cddbd v1.5.2PL0 Copyright (c) Steve Scherf et al.
# Submitted via: audiograbber 1.83.01
#
DISCID=21034903
DTITLE=Lyle Lovett - You've Been So Good Up To Now [CDM)
DYEAR=1992
DGENRE=Country
TTITLE0=You've Been So Good Up To Now
TTITLE1=Baltimore
TTITLE2=I've Been To Memphis
EXTD=TR.
EXTT0=
EXTT1=
EXTT2=
PLAYORDER=
